<svg width="140" height="69" viewBox="0 0 140 69" fill="none" xmlns="http://www.w3.org/2000/svg">
<path d="M14.8809 27.9824H43.6387V68.7803H0.501953V0.78418H14.8809V27.9824ZM14.8809 41.582V55.1816H29.2598V41.582H14.8809Z" fill="#E72E00"/>
<path d="M70.6983 27.9824C72.319 27.9824 73.8151 28.263 74.3969 28.3832L73.5658 42.6505C71.8619 42.2096 69.4515 41.7287 67.0827 41.7287C62.9684 41.7287 60.4749 43.1314 60.4749 47.4998V68.7805H45.6387V28.113H59.7685V33.0722C62.0542 29.5454 65.6697 27.9824 70.6983 27.9824Z" fill="#E72E00"/>
<path d="M92.1442 27.983L92.1442 68.7811H77.5066V27.983H92.1442ZM84.7843 9.85059C89.5127 9.85059 93.1721 13.3824 93.1721 17.9461C93.1721 22.5097 89.5127 26.0416 84.7843 26.0416C80.0559 26.0416 76.3965 22.5097 76.3965 17.9461C76.3965 13.3824 80.0559 9.85059 84.7843 9.85059Z" fill="#E72E00"/>
<path d="M109.552 41.582H123.932V55.1816H109.552V68.7803H95.1729V0.78418H109.552V41.582ZM138.311 68.7803H123.932V55.1816H138.311V68.7803ZM138.311 41.582H123.932V27.9824H138.311V41.582Z" fill="#E72E00"/>
</svg>
